<svg width="37" height="35" viewBox="0 0 37 35" fill="none" xmlns="http://www.w3.org/2000/svg">
<path fill-rule="evenodd" clip-rule="evenodd" d="M35.2824 6.50848C35.5987 6.63011 35.8699 6.84028 36.0611 7.11187C36.2523 7.38345 36.3546 7.704 36.3548 8.03215V26.9949C36.3546 27.3231 36.2523 27.6436 36.0611 27.9152C35.8699 28.1868 35.5987 28.3969 35.2824 28.5186L18.8091 34.8672C18.4029 35.0238 17.9497 35.0238 17.5435 34.8672L1.0702 28.5186C0.754292 28.3966 0.483532 28.1863 0.292794 27.9147C0.102056 27.6432 7.92079e-05 27.3228 0 26.9949L0 8.03215C7.92079e-05 7.70425 0.102056 7.38389 0.292794 7.11233C0.483532 6.84077 0.754292 6.63045 1.0702 6.50848L16.9118 0.402826L16.9345 0.396259L17.5435 0.159826C17.9504 0.00271415 18.4045 0.00271415 18.8114 0.159826L19.4226 0.396259L19.4453 0.402826L35.2824 6.50848V6.50848ZM23.6397 4.37839L9.65675 9.76599L4.19444 7.66218L2.27218 8.40431V9.27999L17.0413 14.9719V32.3146L18.1774 32.7525L19.3135 32.3146V14.9741L34.0827 9.28218V8.4065L32.1604 7.66437L18.1774 13.0498L12.7151 10.946L26.6981 5.55837L23.6397 4.37839Z" fill="white"/>
</svg>
