<svg width="22" height="13" viewBox="0 0 22 13" fill="none" xmlns="http://www.w3.org/2000/svg">
<path d="M20.625 12.125C20.625 12.125 22 12.125 22 11.1875C22 10.25 20.625 7.4375 15.125 7.4375C9.625 7.4375 8.25 10.25 8.25 11.1875C8.25 12.125 9.625 12.125 9.625 12.125H20.625ZM9.65525 11.1875C9.64509 11.1865 9.635 11.1853 9.625 11.1838C9.62638 10.9363 9.85463 10.2181 10.67 9.57125C11.429 8.96469 12.7627 8.375 15.125 8.375C17.4859 8.375 18.8196 8.96562 19.58 9.57125C20.3954 10.2181 20.6222 10.9372 20.625 11.1838L20.614 11.1856C20.6076 11.1864 20.6012 11.187 20.5947 11.1875H9.65525V11.1875ZM15.125 5.5625C15.8543 5.5625 16.5538 5.36496 17.0695 5.01333C17.5853 4.66169 17.875 4.18478 17.875 3.6875C17.875 3.19022 17.5853 2.71331 17.0695 2.36167C16.5538 2.01004 15.8543 1.8125 15.125 1.8125C14.3957 1.8125 13.6962 2.01004 13.1805 2.36167C12.6647 2.71331 12.375 3.19022 12.375 3.6875C12.375 4.18478 12.6647 4.66169 13.1805 5.01333C13.6962 5.36496 14.3957 5.5625 15.125 5.5625ZM19.25 3.6875C19.25 4.05684 19.1433 4.42257 18.936 4.7638C18.7287 5.10503 18.4249 5.41507 18.0418 5.67624C17.6588 5.9374 17.204 6.14457 16.7036 6.28591C16.2031 6.42725 15.6667 6.5 15.125 6.5C14.5833 6.5 14.0469 6.42725 13.5464 6.28591C13.046 6.14457 12.5912 5.9374 12.2082 5.67624C11.8251 5.41507 11.5213 5.10503 11.314 4.7638C11.1067 4.42257 11 4.05684 11 3.6875C11 2.94158 11.4346 2.22621 12.2082 1.69876C12.9818 1.17132 14.031 0.875 15.125 0.875C16.219 0.875 17.2682 1.17132 18.0418 1.69876C18.8154 2.22621 19.25 2.94158 19.25 3.6875V3.6875ZM9.537 7.7C8.98697 7.58191 8.42 7.50428 7.84575 7.46844C7.52308 7.44752 7.19912 7.43719 6.875 7.4375C1.375 7.4375 0 10.25 0 11.1875C0 11.8128 0.457875 12.125 1.375 12.125H7.172C6.96816 11.8323 6.86651 11.5114 6.875 11.1875C6.875 10.2406 7.39338 9.27312 8.37375 8.465C8.70788 8.18937 9.097 7.93156 9.537 7.7ZM6.765 8.375C5.95121 9.20869 5.51161 10.1861 5.5 11.1875H1.375C1.375 10.9438 1.6005 10.2219 2.42 9.57125C3.16938 8.975 4.4715 8.39375 6.765 8.37594V8.375ZM2.0625 4.15625C2.0625 3.41033 2.4971 2.69496 3.27068 2.16751C4.04427 1.64007 5.09348 1.34375 6.1875 1.34375C7.28152 1.34375 8.33073 1.64007 9.10432 2.16751C9.8779 2.69496 10.3125 3.41033 10.3125 4.15625C10.3125 4.90217 9.8779 5.61754 9.10432 6.14499C8.33073 6.67243 7.28152 6.96875 6.1875 6.96875C5.09348 6.96875 4.04427 6.67243 3.27068 6.14499C2.4971 5.61754 2.0625 4.90217 2.0625 4.15625V4.15625ZM6.1875 2.28125C5.45815 2.28125 4.75868 2.47879 4.24296 2.83042C3.72723 3.18206 3.4375 3.65897 3.4375 4.15625C3.4375 4.65353 3.72723 5.13044 4.24296 5.48208C4.75868 5.83371 5.45815 6.03125 6.1875 6.03125C6.91685 6.03125 7.61632 5.83371 8.13204 5.48208C8.64777 5.13044 8.9375 4.65353 8.9375 4.15625C8.9375 3.65897 8.64777 3.18206 8.13204 2.83042C7.61632 2.47879 6.91685 2.28125 6.1875 2.28125Z" fill="white"/>
</svg>
