<svg width="29" height="24" viewBox="0 0 29 24" fill="none" xmlns="http://www.w3.org/2000/svg">
<path fill-rule="evenodd" clip-rule="evenodd" d="M17.875 3C18.1154 3 18.3459 3.07902 18.5158 3.21967C18.6858 3.36032 18.7812 3.55109 18.7812 3.75V11.25H27.8438C28.0841 11.25 28.3146 11.329 28.4846 11.4697C28.6545 11.6103 28.75 11.8011 28.75 12C28.75 12.1989 28.6545 12.3897 28.4846 12.5303C28.3146 12.671 28.0841 12.75 27.8438 12.75H18.7812V20.25C18.7812 20.4489 18.6858 20.6397 18.5158 20.7803C18.3459 20.921 18.1154 21 17.875 21C17.6346 21 17.4041 20.921 17.2342 20.7803C17.0642 20.6397 16.9688 20.4489 16.9688 20.25V12.75H7.90625C7.6659 12.75 7.43539 12.671 7.26543 12.5303C7.09548 12.3897 7 12.1989 7 12C7 11.8011 7.09548 11.6103 7.26543 11.4697C7.43539 11.329 7.6659 11.25 7.90625 11.25H16.9688V3.75C16.9688 3.55109 17.0642 3.36032 17.2342 3.21967C17.4041 3.07902 17.6346 3 17.875 3V3Z" fill="white"/>
</svg>
